<svg width="244" height="49" viewBox="0 0 244 49" fill="none" xmlns="http://www.w3.org/2000/svg">
    <style>
        svg {
            fill: #212529
        }
        @media (prefers-color-scheme: dark) {
            svg {
                fill: #ffffff
            }
        }
    </style>
    <path d="M0.82074 37.5718V47.392C0.821176 47.5537 0.885588 47.7086 0.999899 47.8229C1.11421 47.9372 1.26912 48.0016 1.43078 48.0021H11.251C11.3307 48.0014 11.4095 47.9849 11.4828 47.9535C11.556 47.9221 11.6224 47.8764 11.6779 47.8192L22.0152 37.5107C22.0724 37.4551 22.118 37.3888 22.1494 37.3156C22.1808 37.2423 22.1973 37.1635 22.198 37.0838V27.2338C22.1976 27.0722 22.1332 26.9174 22.019 26.8031C21.9048 26.6888 21.7499 26.6243 21.5883 26.6238H11.738C11.6583 26.6245 11.5795 26.641 11.5063 26.6724C11.433 26.7038 11.3667 26.7494 11.3112 26.8066L1.00359 37.1446C0.94633 37.2002 0.900681 37.2665 0.869292 37.3399C0.837903 37.4132 0.821399 37.4921 0.82074 37.5718V37.5718Z"
          fill="url(#paint0_linear_3_3)"/>
    <path d="M37.873 26.6542H28.0528C27.8913 26.6548 27.7365 26.7193 27.6224 26.8336C27.5082 26.9479 27.4439 27.1027 27.4434 27.2643V37.0845C27.4441 37.1642 27.4607 37.243 27.492 37.3162C27.5234 37.3895 27.5691 37.4558 27.6263 37.5113L37.9339 47.8189C37.9894 47.8761 38.0557 47.9218 38.129 47.9532C38.2022 47.9845 38.281 48.0011 38.3607 48.0018H48.1809C48.3426 48.0013 48.4975 47.9369 48.6118 47.8226C48.7261 47.7083 48.7906 47.5534 48.791 47.3917V37.5715C48.7903 37.4918 48.7738 37.413 48.7424 37.3397C48.711 37.2665 48.6654 37.2002 48.6081 37.1447L38.2695 26.8371C38.2266 26.7731 38.1669 26.7222 38.0969 26.69C38.027 26.6577 37.9495 26.6453 37.873 26.6542Z"
          fill="url(#paint1_linear_3_3)"/>
    <path d="M0.82074 0.611142V10.4314C0.821443 10.5111 0.837967 10.5898 0.869355 10.6631C0.900743 10.7364 0.94637 10.8027 1.00359 10.8582L11.3416 21.1956C11.3971 21.2528 11.4634 21.2984 11.5367 21.3298C11.61 21.3612 11.6887 21.3777 11.7685 21.3784H21.5576C21.7192 21.378 21.8742 21.3136 21.9885 21.1992C22.1028 21.0849 22.1672 20.93 22.1676 20.7684V10.9184C22.1669 10.8387 22.1504 10.7599 22.119 10.6866C22.0876 10.6134 22.042 10.547 21.9848 10.4915L11.6772 0.183946C11.6217 0.126729 11.5554 0.0811023 11.4821 0.0497143C11.4088 0.0183263 11.33 0.00180152 11.2503 0.00109863L1.43078 0.00109863C1.26912 0.00153496 1.11421 0.0659473 0.999899 0.180258C0.885588 0.294569 0.821176 0.449483 0.82074 0.611142V0.611142Z"
          fill="url(#paint2_linear_3_3)"/>
    <path d="M37.9643 0.183946L27.6263 10.4915C27.5691 10.547 27.5234 10.6133 27.492 10.6866C27.4607 10.7599 27.4441 10.8387 27.4434 10.9184V20.7386C27.4439 20.9003 27.5083 21.0552 27.6226 21.1695C27.7369 21.2838 27.8918 21.3482 28.0535 21.3486H37.8737C37.9534 21.3479 38.0322 21.3314 38.1055 21.3C38.1787 21.2686 38.245 21.223 38.3005 21.1658L48.6379 10.8576C48.6951 10.8021 48.7407 10.7357 48.7721 10.6625C48.8035 10.5892 48.82 10.5104 48.8207 10.4307V0.611142C48.8203 0.449539 48.7559 0.294676 48.6417 0.180374C48.5275 0.0660727 48.3726 0.0016219 48.211 0.00109837H38.3908C38.3103 -0.00418197 38.2298 0.00962843 38.1556 0.0414039C38.0815 0.0731793 38.0159 0.12202 37.9643 0.183946Z"/>
    <path d="M70.1785 26.5332C69.5312 26.1579 68.8463 25.8513 68.1351 25.6183C67.1735 25.3441 66.1771 25.2104 65.1772 25.2216C64.0477 25.2031 62.9234 25.3785 61.8532 25.74C60.9865 26.0353 60.1881 26.5019 59.5056 27.1122C58.8895 27.6542 58.409 28.3331 58.1027 29.0944C57.5258 30.5064 57.493 32.0821 58.0107 33.5168C58.2452 34.199 58.6074 34.8304 59.0781 35.3771C59.5954 35.9584 60.203 36.4526 60.8774 36.8408C61.6842 37.2643 62.5465 37.5723 63.439 37.7557C64.2648 37.9045 65.0798 38.1083 65.8785 38.3658C66.4473 38.537 66.9908 38.783 67.4947 39.0975C67.8647 39.3328 68.169 39.658 68.3792 40.0428C68.5562 40.4243 68.6398 40.8424 68.6232 41.2626C68.6282 41.6581 68.5493 42.0501 68.3916 42.4129C68.2338 42.7756 68.001 43.1007 67.7083 43.3668C67.0982 43.9461 66.1542 44.2513 64.8723 44.2513C64.2386 44.2669 63.6076 44.1635 63.0121 43.9464C62.4834 43.7709 61.9808 43.5248 61.5179 43.2147C61.091 42.9395 60.6923 42.6229 60.3276 42.2694C60.0578 42.0204 59.8031 41.7554 59.5651 41.4758L56.8207 44.2202C57.1256 44.5558 57.4612 44.9215 57.8576 45.2875C58.4016 45.7965 59.0059 46.2369 59.657 46.5989C60.3986 47.015 61.1865 47.3425 62.0046 47.5746C62.9581 47.8384 63.9429 47.9719 64.9322 47.9714C65.9892 47.9878 67.0413 47.8227 68.0426 47.4834C68.9473 47.1762 69.7855 46.7001 70.5128 46.0804C71.1863 45.4936 71.7358 44.7782 72.129 43.9762C72.5246 43.1593 72.723 42.261 72.7083 41.3535C72.733 40.3796 72.5458 39.4119 72.1594 38.5175C71.8254 37.7551 71.3374 37.0699 70.7261 36.5049C70.1266 35.9444 69.4356 35.4905 68.683 35.1631C67.9028 34.8135 67.084 34.5575 66.2435 34.4007C65.4987 34.2602 64.7649 34.0666 64.0477 33.8214C63.5554 33.6634 63.092 33.4265 62.6755 33.1201C62.3673 32.9058 62.1245 32.6103 61.9742 32.2663C61.8217 31.9426 61.7485 31.5871 61.7606 31.2294C61.7666 30.9184 61.8408 30.6125 61.9779 30.3332C62.115 30.054 62.3117 29.8082 62.5542 29.6132C62.8519 29.3609 63.1929 29.1646 63.5606 29.0339C64.0317 28.875 64.5276 28.8027 65.0244 28.8203C65.5927 28.8154 66.1584 28.8977 66.7018 29.0643C67.1441 29.2214 67.5726 29.4152 67.9827 29.6436C68.3059 29.8271 68.6034 30.0527 68.8672 30.3145C68.9892 30.4365 69.1112 30.5281 69.2028 30.6194L71.8255 27.9967C71.7035 27.8747 71.5815 27.7222 71.4287 27.5394C71.0692 27.1386 70.647 26.7988 70.1785 26.5332Z"/>
    <path d="M109.242 28.241C108.617 27.5076 107.835 26.9239 106.955 26.5332C105.782 26.0263 104.511 25.7867 103.234 25.8319H98.8734L96.3119 28.3935V47.4232H100.215V39.4023H103.478C104.348 39.4049 105.212 39.271 106.04 39.0056C106.887 38.7603 107.676 38.3453 108.358 37.7858C109.075 37.2149 109.649 36.4843 110.034 35.6521C110.486 34.6793 110.705 33.6142 110.674 32.5417C110.658 31.8184 110.545 31.1005 110.339 30.4071C110.155 29.6065 109.778 28.863 109.242 28.241ZM105.674 35.0414C105.346 35.3535 104.957 35.5955 104.533 35.7527C104.108 35.91 103.656 35.9793 103.204 35.9563H100.247V29.2475H103.205C103.874 29.2503 104.529 29.4492 105.087 29.8197C105.645 30.1901 106.083 30.716 106.345 31.3322C106.608 31.9484 106.685 32.6281 106.565 33.2874C106.446 33.9466 106.137 34.5565 105.675 35.0418L105.674 35.0414Z"/>
    <path d="M117.568 43.7632V38.1218H124.856V34.4926H117.568V29.4006H127.478V25.8319H116.043L113.511 28.363V47.4232H128.241V43.7632H117.568Z"/>
    <path d="M142.085 38.3654C143.219 37.8092 144.17 36.9419 144.829 35.8647C145.428 34.7611 145.733 33.5218 145.714 32.2663C145.71 31.5269 145.576 30.7939 145.317 30.1012C145.039 29.3283 144.603 28.6219 144.036 28.0274C143.398 27.347 142.617 26.8163 141.749 26.4734C140.642 26.042 139.461 25.8343 138.274 25.8623H133.669L131.107 28.363V47.3921H135.009V38.8839H138.089L142.45 47.3921H143.914L145.926 45.3794L142.085 38.3654ZM140.713 34.6146C140.398 34.9283 140.021 35.1721 139.606 35.3297C139.191 35.4874 138.747 35.5555 138.304 35.5295H135.042V29.2779H138.305C138.736 29.2595 139.166 29.3284 139.569 29.4804C139.973 29.6324 140.341 29.8644 140.653 30.1624C140.955 30.4532 141.193 30.8045 141.351 31.1933C141.508 31.5821 141.582 31.9998 141.568 32.4191C141.579 33.234 141.272 34.0213 140.713 34.6146H140.713Z"/>
    <path d="M186.577 28.5459C184.991 26.9528 182.965 25.8695 180.759 25.4349C178.553 25.0003 176.268 25.2341 174.196 26.1064C172.854 26.6701 171.64 27.5 170.628 28.5459C169.616 29.5855 168.81 30.8063 168.249 32.1443C167.379 34.2297 167.144 36.5255 167.572 38.7441C168.001 40.9627 169.074 43.0056 170.658 44.617C171.671 45.6629 172.885 46.4928 174.227 47.0565C175.616 47.6445 177.109 47.9454 178.618 47.941C180.127 47.9515 181.622 47.6504 183.009 47.0565C184.347 46.4852 185.559 45.6563 186.577 44.617C187.589 43.5596 188.405 42.3309 188.987 40.9881C189.57 39.587 189.871 38.0841 189.871 36.5662C189.871 35.0483 189.57 33.5455 188.987 32.1443C188.404 30.8109 187.588 29.5923 186.577 28.5459ZM185.083 39.4024C184.768 40.2945 184.293 41.1213 183.68 41.8419C183.066 42.541 182.32 43.1111 181.484 43.5192C180.577 43.9214 179.595 44.1292 178.602 44.1292C177.61 44.1292 176.628 43.9214 175.72 43.5192C174.878 43.1215 174.13 42.5498 173.525 41.8419C172.912 41.1213 172.437 40.2945 172.122 39.4024C171.472 37.5049 171.472 35.4447 172.122 33.5473C172.437 32.6645 172.913 31.8476 173.525 31.1382C174.131 30.4395 174.88 29.8781 175.72 29.4915C176.63 29.0791 177.619 28.8709 178.617 28.8815C179.606 28.8708 180.585 29.0791 181.484 29.4915C182.325 29.8781 183.073 30.4394 183.68 31.1382C184.292 31.8476 184.768 32.6645 185.083 33.5473C185.417 34.4866 185.582 35.4778 185.57 36.4748C185.568 37.4705 185.404 38.4592 185.085 39.4024H185.083Z"/>
    <path d="M215.671 28.363V47.4232H219.758V25.8319H218.233L215.671 28.363Z"/>
    <path d="M162.824 26.5332C162.177 26.1579 161.492 25.8513 160.781 25.6183C159.819 25.3441 158.823 25.2104 157.823 25.2216C156.693 25.2031 155.569 25.3785 154.499 25.74C153.632 26.0352 152.834 26.5019 152.151 27.1122C151.535 27.6542 151.055 28.3331 150.748 29.0944C150.172 30.5062 150.139 32.0818 150.657 33.5162C150.891 34.1984 151.254 34.8297 151.724 35.3764C152.242 35.9577 152.849 36.4519 153.523 36.8402C154.33 37.2637 155.193 37.5716 156.085 37.7551C156.911 37.9039 157.726 38.1077 158.525 38.3651C159.094 38.5363 159.637 38.7823 160.141 39.0968C160.511 39.3322 160.815 39.6574 161.025 40.0421C161.202 40.4236 161.286 40.8417 161.269 41.2619C161.274 41.6574 161.195 42.0495 161.037 42.4122C160.88 42.7749 160.647 43.1001 160.354 43.3661C159.744 43.9454 158.8 44.2506 157.518 44.2506C156.885 44.2663 156.254 44.1628 155.658 43.9458C155.129 43.7702 154.627 43.5241 154.164 43.214C153.737 42.9388 153.338 42.6222 152.974 42.2687C152.704 42.0196 152.449 41.7547 152.211 41.4752L149.467 44.2195C149.772 44.5551 150.107 44.9208 150.504 45.2869C151.047 45.7958 151.652 46.2362 152.303 46.5982C153.044 47.0144 153.832 47.3419 154.65 47.574C155.604 47.8377 156.588 47.9712 157.578 47.9707C158.635 47.9871 159.687 47.822 160.688 47.4827C161.593 47.1755 162.431 46.6995 163.158 46.0798C163.832 45.493 164.381 44.7776 164.775 43.9755C165.17 43.1586 165.369 42.2603 165.354 41.3528C165.379 40.3789 165.191 39.4113 164.805 38.5169C164.471 37.7544 163.983 37.0692 163.372 36.5042C162.772 35.9437 162.081 35.4899 161.329 35.1625C160.548 34.8128 159.73 34.5569 158.889 34.4C158.144 34.2595 157.411 34.0659 156.694 33.8207C156.201 33.6627 155.738 33.4259 155.321 33.1194C155.013 32.9052 154.77 32.6096 154.62 32.2657C154.468 31.9419 154.394 31.5865 154.407 31.2288C154.413 30.9177 154.487 30.6118 154.624 30.3325C154.761 30.0532 154.958 29.8075 155.2 29.6126C155.498 29.3602 155.839 29.164 156.206 29.0333C156.677 28.8744 157.173 28.802 157.67 28.8197C158.238 28.8147 158.804 28.897 159.347 29.0637C159.79 29.2208 160.218 29.4146 160.628 29.643C160.952 29.8265 161.249 30.0521 161.513 30.3139C161.635 30.4359 161.757 30.5275 161.848 30.6187L164.471 27.996C164.349 27.874 164.227 27.7216 164.074 27.5387C163.714 27.1381 163.292 26.7986 162.824 26.5332Z"/>
    <path d="M241.715 27.9362C241.137 27.3971 240.491 26.9358 239.793 26.564C239.034 26.155 238.224 25.8474 237.384 25.6491C236.425 25.4218 235.442 25.3091 234.457 25.3135C232.905 25.2952 231.366 25.607 229.943 26.2284C228.62 26.8073 227.427 27.6475 226.437 28.6986C225.453 29.7535 224.677 30.9846 224.15 32.3275C223.596 33.7355 223.316 35.2363 223.326 36.7492C223.308 38.2729 223.588 39.7854 224.15 41.2017C224.66 42.5191 225.427 43.7217 226.406 44.7396C227.389 45.7555 228.573 46.5551 229.883 47.0872C231.286 47.6594 232.789 47.9495 234.305 47.941C235.306 47.9403 236.302 47.7966 237.263 47.5141C238.156 47.2488 239.016 46.8804 239.825 46.4163C240.544 46.0107 241.219 45.5302 241.837 44.983C242.344 44.5307 242.795 44.0186 243.179 43.458L240.343 40.9878C240.099 41.2318 239.794 41.5671 239.489 41.9027C239.153 42.2915 238.763 42.6304 238.332 42.9092C237.811 43.2557 237.247 43.5325 236.654 43.7325C235.883 43.9657 235.081 44.0789 234.276 44.0681C233.362 44.0886 232.456 43.9049 231.622 43.5303C230.788 43.1558 230.049 42.5998 229.457 41.903C228.865 41.213 228.409 40.4162 228.116 39.5554C227.806 38.6107 227.652 37.622 227.658 36.6279C227.654 35.624 227.808 34.6257 228.116 33.6699C228.4 32.7616 228.867 31.9209 229.488 31.1996C230.084 30.4945 230.821 29.923 231.653 29.5223C232.535 29.0888 233.507 28.8694 234.489 28.8818C235.703 28.8373 236.903 29.1558 237.935 29.7967C238.743 30.3344 239.455 31.0045 240.039 31.7789L242.784 29.0346C242.416 28.6679 242.081 28.3022 241.715 27.9362Z"/>
    <path d="M209.694 25.8319L207.255 28.241V41.1713L196.795 25.8319H192.678V47.4232H196.673V31.8702L207.224 47.4232H211.25V25.8319H209.694Z"/>
    <path d="M91.616 25.8319L89.1765 28.2715V38.7315C89.1792 39.4804 89.0974 40.2272 88.9325 40.9577C88.8002 41.5703 88.5287 42.1443 88.139 42.6351C87.7526 43.1126 87.248 43.4806 86.6752 43.7024C85.2311 44.1904 83.6667 44.1904 82.2227 43.7024C81.6499 43.4806 81.1452 43.1126 80.7589 42.6351C80.3749 42.1408 80.104 41.5682 79.9654 40.9577C79.8005 40.2272 79.7187 39.4804 79.7214 38.7315V25.8319H75.6362V39.4635C75.6197 40.6079 75.8161 41.7454 76.2155 42.8179C76.5854 43.8337 77.1676 44.7589 77.9233 45.5319C78.7118 46.3198 79.6573 46.9329 80.6984 47.3313C83.119 48.2257 85.7795 48.2257 88.2001 47.3313C89.2412 46.9329 90.1867 46.3198 90.9753 45.5319C91.7411 44.767 92.3248 43.8394 92.683 42.8179C93.0798 41.7447 93.2761 40.6077 93.2623 39.4635V25.8319H91.616Z"/>
    <defs>
        <linearGradient id="paint0_linear_3_3" x1="-11.9629" y1="10.5045" x2="34.2573" y2="63.3068"
                        gradientUnits="userSpaceOnUse">
            <stop stop-color="#B7EA3E"/>
            <stop offset="1" stop-color="#24D35E"/>
        </linearGradient>
        <linearGradient id="paint1_linear_3_3" x1="3.66226" y1="-2.10748" x2="49.2033" y2="49.9601"
                        gradientUnits="userSpaceOnUse">
            <stop stop-color="#B7EA3E"/>
            <stop offset="1" stop-color="#24D35E"/>
        </linearGradient>
        <linearGradient id="paint2_linear_3_3" x1="1.35441" y1="-0.918125" x2="46.9821" y2="51.0712"
                        gradientUnits="userSpaceOnUse">
            <stop stop-color="#B7EA3E"/>
            <stop offset="1" stop-color="#24D35E"/>
        </linearGradient>
    </defs>
</svg>
